<?xml version="1.0" encoding="utf-8"?>
<!-- Generator: Adobe Illustrator 22.0.1, SVG Export Plug-In . SVG Version: 6.00 Build 0)  -->
<svg version="1.1" id="Layer_1" xmlns="http://www.w3.org/2000/svg" xmlns:xlink="http://www.w3.org/1999/xlink" x="0px" y="0px"
	 viewBox="0 0 236.5 54" style="enable-background:new 0 0 236.5 54;" xml:space="preserve">
<style type="text/css">
	.st0{fill:#343434;}
	.st1{enable-background:new    ;}
	.st2{font-family:'AktivGrotesk-Medium';}
	.st3{font-size:25px;}
</style>
<path id="Combined-Shape_5_" class="st0" d="M11.2,1.8H2v20h10V11.1h16.2V1.8H11.2z"/>
<path id="Combined-Shape-Copy-2_5_" class="st0" d="M18.9,46.9h9.3v-20h-10v10.8H2v9.3H18.9z"/>
<path id="Combined-Shape-Copy_5_" class="st0" d="M42.8,1.8h-9.3v20h10V11.1h16.2V1.8H42.8z"/>
<path id="Combined-Shape-Copy-3_5_" class="st0" d="M42.8,46.9h-9.3v-20h10v10.8h16.2v9.3H42.8z"/>
<path id="Combined-Shape-Copy-4_5_" class="st0" d="M74.4,46.9h-9.3v-20h10v10.8h16.2v9.3H74.4z"/>
<g class="st1">
	<path class="st0" d="M119.1,18.9c0,0.4,0.2,0.8,0.3,1.1c0.2,0.3,0.4,0.5,0.7,0.7c0.3,0.2,0.6,0.3,1,0.3c0.4,0.1,0.8,0.1,1.2,0.1
		c1,0,1.6-0.1,2-0.4c0.4-0.3,0.6-0.7,0.6-1.3c0-0.4-0.1-0.8-0.4-1.1c-0.3-0.3-0.8-0.5-1.6-0.7c-1-0.2-1.9-0.4-2.7-0.5
		c-0.8-0.2-1.4-0.4-2-0.7c-0.5-0.3-0.9-0.7-1.2-1.1c-0.3-0.5-0.4-1.1-0.4-1.9c0-0.6,0.1-1.1,0.4-1.6c0.3-0.5,0.6-0.9,1.1-1.3
		c0.5-0.3,1-0.6,1.7-0.8s1.4-0.3,2.2-0.3c1,0,1.8,0.1,2.5,0.3c0.7,0.2,1.2,0.5,1.6,0.8c0.4,0.4,0.7,0.8,1,1.2s0.4,0.9,0.5,1.4
		l-2.5,0.4c-0.2-0.7-0.5-1.1-0.9-1.5c-0.4-0.3-1.1-0.5-2-0.5c-0.5,0-1,0-1.3,0.1c-0.4,0.1-0.6,0.2-0.8,0.4c-0.2,0.2-0.3,0.3-0.4,0.5
		c-0.1,0.2-0.1,0.4-0.1,0.5c0,0.3,0,0.5,0.1,0.7c0.1,0.2,0.2,0.3,0.4,0.5c0.2,0.1,0.4,0.2,0.7,0.3c0.3,0.1,0.7,0.2,1.1,0.3l1.6,0.3
		c0.9,0.1,1.6,0.3,2.2,0.6c0.6,0.2,1,0.5,1.4,0.9s0.6,0.7,0.7,1.2c0.1,0.5,0.2,1,0.2,1.5c0,1.2-0.5,2.1-1.4,2.9
		c-0.9,0.7-2.3,1.1-4.1,1.1c-0.8,0-1.5-0.1-2.2-0.2c-0.7-0.1-1.3-0.4-1.9-0.7c-0.5-0.3-1-0.8-1.3-1.3c-0.3-0.6-0.5-1.3-0.6-2.1
		H119.1z"/>
	<path class="st0" d="M141.7,19c-0.2,1.3-0.8,2.4-1.7,3.1c-0.9,0.7-2.2,1.1-4,1.1c-2.1,0-3.6-0.6-4.7-1.8c-1.1-1.2-1.6-2.9-1.6-5
		c0-1.1,0.2-2.1,0.5-3c0.3-0.9,0.7-1.6,1.3-2.2c0.6-0.6,1.2-1,2-1.3c0.8-0.3,1.6-0.5,2.6-0.5c1,0,1.9,0.2,2.6,0.5s1.3,0.7,1.8,1.3
		c0.5,0.6,0.8,1.2,1.1,2c0.2,0.8,0.3,1.6,0.3,2.6V17h-9.3c0,1.2,0.3,2.1,0.9,2.9s1.4,1.1,2.6,1.1c0.9,0,1.6-0.2,2-0.5
		c0.5-0.4,0.8-0.9,0.9-1.5H141.7z M139.1,15.1c0-1.1-0.3-1.9-0.8-2.5s-1.3-0.9-2.4-0.9c-1,0-1.8,0.3-2.4,0.9
		c-0.5,0.6-0.9,1.5-0.9,2.5H139.1z"/>
	<path class="st0" d="M147.4,9.8v1.9c0.6-0.8,1.2-1.4,2-1.8c0.7-0.4,1.5-0.6,2.3-0.6c2.9,0,4.3,1.6,4.3,4.8v8.6h-2.8v-8.2
		c0-1-0.2-1.8-0.6-2.2s-1-0.6-1.7-0.6c-0.5,0-1,0.1-1.4,0.3c-0.4,0.2-0.8,0.4-1.1,0.7c-0.3,0.3-0.5,0.6-0.7,1
		c-0.2,0.4-0.3,0.8-0.3,1.2v7.8h-2.8v-13H147.4z"/>
	<path class="st0" d="M161.2,18.9c0,0.4,0.2,0.8,0.3,1.1c0.2,0.3,0.4,0.5,0.7,0.7c0.3,0.2,0.6,0.3,1,0.3c0.4,0.1,0.8,0.1,1.2,0.1
		c1,0,1.6-0.1,2-0.4c0.4-0.3,0.6-0.7,0.6-1.3c0-0.4-0.1-0.8-0.4-1.1c-0.3-0.3-0.8-0.5-1.6-0.7c-1-0.2-1.9-0.4-2.7-0.5
		c-0.8-0.2-1.4-0.4-2-0.7c-0.5-0.3-0.9-0.7-1.2-1.1c-0.3-0.5-0.4-1.1-0.4-1.9c0-0.6,0.1-1.1,0.4-1.6c0.3-0.5,0.6-0.9,1.1-1.3
		c0.5-0.3,1-0.6,1.7-0.8s1.4-0.3,2.2-0.3c1,0,1.8,0.1,2.5,0.3c0.7,0.2,1.2,0.5,1.6,0.8c0.4,0.4,0.7,0.8,1,1.2s0.4,0.9,0.5,1.4
		l-2.5,0.4c-0.2-0.7-0.5-1.1-0.9-1.5c-0.4-0.3-1.1-0.5-2-0.5c-0.5,0-1,0-1.3,0.1c-0.4,0.1-0.6,0.2-0.8,0.4c-0.2,0.2-0.3,0.3-0.4,0.5
		c-0.1,0.2-0.1,0.4-0.1,0.5c0,0.3,0,0.5,0.1,0.7c0.1,0.2,0.2,0.3,0.4,0.5c0.2,0.1,0.4,0.2,0.7,0.3c0.3,0.1,0.7,0.2,1.1,0.3l1.6,0.3
		c0.9,0.1,1.6,0.3,2.2,0.6c0.6,0.2,1,0.5,1.4,0.9s0.6,0.7,0.7,1.2c0.1,0.5,0.2,1,0.2,1.5c0,1.2-0.5,2.1-1.4,2.9
		c-0.9,0.7-2.3,1.1-4.1,1.1c-0.8,0-1.5-0.1-2.2-0.2c-0.7-0.1-1.3-0.4-1.9-0.7c-0.5-0.3-1-0.8-1.3-1.3c-0.3-0.6-0.5-1.3-0.6-2.1
		H161.2z"/>
	<path class="st0" d="M183.8,19c-0.2,1.3-0.8,2.4-1.7,3.1c-0.9,0.7-2.2,1.1-4,1.1c-2.1,0-3.6-0.6-4.7-1.8c-1.1-1.2-1.6-2.9-1.6-5
		c0-1.1,0.2-2.1,0.5-3c0.3-0.9,0.7-1.6,1.3-2.2c0.6-0.6,1.2-1,2-1.3c0.8-0.3,1.6-0.5,2.6-0.5c1,0,1.9,0.2,2.6,0.5
		c0.7,0.3,1.3,0.7,1.8,1.3c0.5,0.6,0.8,1.2,1.1,2c0.2,0.8,0.4,1.6,0.4,2.6V17h-9.3c0,1.2,0.3,2.1,0.9,2.9s1.4,1.1,2.6,1.1
		c0.9,0,1.6-0.2,2-0.5c0.5-0.4,0.8-0.9,0.9-1.5H183.8z M181.2,15.1c0-1.1-0.3-1.9-0.8-2.5s-1.3-0.9-2.4-0.9c-1,0-1.8,0.3-2.4,0.9
		s-0.9,1.5-1,2.5H181.2z"/>
	<path class="st0" d="M194.6,21.1c-0.5,0.6-1.1,1.1-1.8,1.5s-1.5,0.6-2.5,0.6c-0.6,0-1.2-0.1-1.7-0.2c-0.5-0.2-1-0.4-1.4-0.7
		s-0.7-0.7-0.9-1.2c-0.2-0.5-0.3-1.1-0.3-1.7c0-0.9,0.2-1.6,0.6-2.2c0.4-0.6,0.9-1,1.6-1.3c0.6-0.3,1.4-0.5,2.2-0.7s1.6-0.2,2.4-0.2
		l1.9-0.1v-0.5c0-1-0.2-1.7-0.7-2s-1.1-0.6-1.9-0.6c-0.9,0-1.5,0.1-2,0.4c-0.4,0.3-0.7,0.7-0.8,1.3l-2.6-0.3
		c0.2-1.3,0.8-2.2,1.7-2.8c0.9-0.6,2.2-0.9,3.8-0.9c1,0,1.9,0.1,2.6,0.4s1.2,0.6,1.6,1.1c0.4,0.5,0.7,1,0.8,1.7s0.2,1.3,0.2,2.1v8.1
		h-2.7V21.1z M192.7,16.8c-0.9,0-1.5,0.1-2.1,0.3c-0.5,0.1-0.9,0.3-1.2,0.5c-0.3,0.2-0.5,0.4-0.6,0.7s-0.1,0.6-0.1,0.9
		c0,0.6,0.2,1,0.5,1.3s0.9,0.5,1.6,0.5c1.3,0,2.2-0.3,2.8-1c0.6-0.6,0.9-1.5,0.9-2.6v-0.8L192.7,16.8z"/>
	<path class="st0" d="M203.3,5v6.5c0.5-0.7,1.1-1.2,1.8-1.6c0.7-0.4,1.5-0.5,2.4-0.5c0.9,0,1.7,0.2,2.4,0.5c0.7,0.3,1.3,0.8,1.7,1.4
		c0.4,0.6,0.8,1.3,1,2.2c0.2,0.8,0.3,1.8,0.3,2.8c0,1.1-0.1,2-0.4,2.9s-0.6,1.6-1.1,2.2c-0.5,0.6-1.1,1.1-1.8,1.4
		c-0.7,0.3-1.5,0.5-2.4,0.5c-0.8,0-1.5-0.2-2.2-0.5c-0.7-0.3-1.3-0.8-1.8-1.5v1.5h-2.8V5H203.3z M203.2,16.8c0,0.8,0.1,1.5,0.3,2
		c0.2,0.5,0.4,1,0.8,1.3s0.7,0.5,1.1,0.7c0.4,0.1,0.8,0.2,1.3,0.2c0.5,0,0.9-0.1,1.3-0.3c0.4-0.2,0.8-0.4,1-0.8
		c0.3-0.4,0.5-0.8,0.7-1.4c0.2-0.6,0.3-1.3,0.3-2.2c0-0.8-0.1-1.5-0.3-2.1s-0.4-1-0.7-1.4c-0.3-0.4-0.6-0.6-1-0.8s-0.8-0.3-1.2-0.3
		c-0.6,0-1.1,0.1-1.6,0.3c-0.4,0.2-0.8,0.5-1.1,0.8c-0.3,0.4-0.5,0.8-0.6,1.3c-0.1,0.5-0.2,1.1-0.2,1.7v0.6V16.8z"/>
	<path class="st0" d="M218.6,5v17.8h-2.9V5H218.6z"/>
	<path class="st0" d="M233.4,19c-0.2,1.3-0.8,2.4-1.7,3.1c-0.9,0.7-2.2,1.1-4,1.1c-2.1,0-3.6-0.6-4.7-1.8c-1.1-1.2-1.6-2.9-1.6-5
		c0-1.1,0.2-2.1,0.5-3c0.3-0.9,0.7-1.6,1.3-2.2c0.6-0.6,1.2-1,2-1.3c0.8-0.3,1.6-0.5,2.6-0.5c1,0,1.9,0.2,2.6,0.5s1.3,0.7,1.8,1.3
		c0.5,0.6,0.8,1.2,1.1,2c0.2,0.8,0.3,1.6,0.3,2.6V17h-9.3c0,1.2,0.3,2.1,0.9,2.9s1.4,1.1,2.6,1.1c0.9,0,1.6-0.2,2-0.5
		c0.5-0.4,0.8-0.9,0.9-1.5H233.4z M230.8,15.1c0-1.1-0.3-1.9-0.8-2.5s-1.3-0.9-2.4-0.9c-1,0-1.8,0.3-2.4,0.9
		c-0.5,0.6-0.9,1.5-0.9,2.5H230.8z"/>
</g>
<text transform="matrix(1 0 0 1 234.7086 22.8339)" class="st0 st2 st3"> </text>
<g class="st1">
	<path class="st0" d="M128.6,43.3c-0.2,1.5-0.7,2.8-1.7,3.6s-2.3,1.3-4,1.3c-1,0-2-0.2-2.7-0.5c-0.8-0.3-1.4-0.8-1.9-1.4
		c-0.5-0.6-0.9-1.3-1.2-2.2c-0.3-0.8-0.4-1.8-0.4-2.8c0-1,0.1-2,0.4-2.8s0.7-1.6,1.2-2.2c0.5-0.6,1.2-1.1,2-1.4
		c0.8-0.3,1.7-0.5,2.7-0.5c0.9,0,1.7,0.1,2.3,0.4c0.6,0.2,1.2,0.6,1.6,1c0.4,0.4,0.7,0.9,1,1.4c0.2,0.5,0.4,1.1,0.5,1.7l-2.8,0.4
		c-0.1-0.7-0.4-1.3-0.8-1.8s-1-0.7-1.9-0.7c-0.6,0-1.2,0.1-1.6,0.4c-0.4,0.3-0.8,0.6-1,1c-0.3,0.4-0.4,0.9-0.5,1.5s-0.2,1.1-0.2,1.7
		c0,0.7,0.1,1.3,0.2,1.8c0.1,0.6,0.3,1.1,0.5,1.5s0.6,0.7,1,1c0.4,0.2,0.9,0.4,1.5,0.4c0.9,0,1.5-0.2,2-0.7c0.5-0.5,0.7-1.1,0.9-2
		H128.6z"/>
	<path class="st0" d="M134.2,30v2.8h-2.9V30H134.2z M134.2,34.8v13h-2.8v-13H134.2z"/>
	<path class="st0" d="M136.2,37.1v-2.3h2v-3.5h2.8v3.5h3.2v2.3H141v6.8c0,0.7,0.1,1.2,0.4,1.5s0.7,0.5,1.2,0.5c0.3,0,0.6,0,0.8,0
		c0.3,0,0.5-0.1,0.8-0.2l0.4,2.1c-0.8,0.3-1.7,0.4-2.6,0.4c-1.4,0-2.4-0.4-3-1.1s-0.8-1.9-0.8-3.3v-6.5H136.2z"/>
	<path class="st0" d="M147.2,50.1c0.4,0.2,0.9,0.2,1.4,0.2c0.5,0,0.9-0.1,1.2-0.4c0.3-0.2,0.5-0.7,0.8-1.4l0.5-1.3l-5.5-12.5h3.3
		l3.6,9.4l3.3-9.4h3.1L153.6,48c-0.3,0.8-0.6,1.4-0.9,2c-0.3,0.6-0.6,1.1-0.9,1.5c-0.3,0.4-0.7,0.7-1.2,0.9c-0.5,0.2-1,0.3-1.7,0.3
		c-0.4,0-0.8,0-1.2-0.1c-0.4-0.1-0.8-0.2-1.2-0.3L147.2,50.1z"/>
	<path class="st0" d="M169.1,30v17.8h-2.8V30H169.1z"/>
	<path class="st0" d="M180.2,46.1c-0.5,0.6-1.1,1.1-1.8,1.5c-0.7,0.4-1.6,0.6-2.6,0.6c-0.6,0-1.2-0.1-1.7-0.2s-1-0.4-1.4-0.7
		s-0.7-0.7-0.9-1.2c-0.2-0.5-0.3-1.1-0.3-1.7c0-0.9,0.2-1.6,0.6-2.2c0.4-0.6,0.9-1,1.6-1.3c0.6-0.3,1.4-0.5,2.2-0.7s1.6-0.2,2.4-0.2
		l1.9-0.1v-0.5c0-1-0.2-1.7-0.7-2c-0.5-0.4-1.1-0.6-1.9-0.6c-0.9,0-1.5,0.1-2,0.4c-0.4,0.3-0.7,0.7-0.8,1.3l-2.6-0.3
		c0.2-1.3,0.8-2.2,1.7-2.8c0.9-0.6,2.2-0.9,3.8-0.9c1,0,1.9,0.1,2.6,0.4c0.7,0.3,1.2,0.6,1.6,1.1c0.4,0.5,0.7,1,0.8,1.7
		s0.2,1.3,0.2,2.1v8.1h-2.7V46.1z M178.4,41.8c-0.8,0-1.5,0.1-2.1,0.3c-0.5,0.1-0.9,0.3-1.2,0.5c-0.3,0.2-0.5,0.4-0.6,0.7
		c-0.1,0.3-0.1,0.6-0.1,0.9c0,0.6,0.2,1,0.5,1.3s0.9,0.5,1.6,0.5c1.3,0,2.2-0.3,2.8-1c0.6-0.6,0.9-1.5,0.9-2.6v-0.8L178.4,41.8z"/>
	<path class="st0" d="M188.9,30v6.5c0.5-0.7,1.1-1.2,1.8-1.6s1.5-0.5,2.4-0.5c0.9,0,1.7,0.2,2.4,0.5c0.7,0.3,1.3,0.8,1.7,1.4
		s0.8,1.3,1,2.2c0.2,0.8,0.3,1.8,0.3,2.8c0,1.1-0.1,2-0.4,2.9s-0.7,1.6-1.2,2.2c-0.5,0.6-1.1,1.1-1.8,1.4c-0.7,0.3-1.5,0.5-2.3,0.5
		c-0.8,0-1.5-0.2-2.2-0.5c-0.7-0.3-1.3-0.8-1.8-1.5v1.5h-2.8V30H188.9z M188.9,41.8c0,0.8,0.1,1.5,0.3,2c0.2,0.5,0.4,1,0.8,1.3
		s0.7,0.5,1.1,0.7c0.4,0.1,0.8,0.2,1.3,0.2c0.5,0,0.9-0.1,1.3-0.3c0.4-0.2,0.8-0.4,1-0.8c0.3-0.4,0.5-0.8,0.7-1.4
		c0.2-0.6,0.3-1.3,0.3-2.2c0-0.8-0.1-1.5-0.3-2.1c-0.2-0.6-0.4-1-0.7-1.4s-0.6-0.6-1-0.8c-0.4-0.2-0.8-0.3-1.2-0.3
		c-0.6,0-1.1,0.1-1.6,0.3s-0.8,0.5-1.1,0.8c-0.3,0.4-0.5,0.8-0.6,1.3c-0.1,0.5-0.2,1.1-0.2,1.7v0.6V41.8z"/>
	<path class="st0" d="M203.5,44.4v3.5h-3v-3.5H203.5z"/>
</g>
</svg>
